<svg width="24" height="24" viewBox="0 0 24 24" fill="none" xmlns="http://www.w3.org/2000/svg">
<path fill-rule="evenodd" clip-rule="evenodd" d="M1.07812 23V21.9739V13.0406H11.0375V23H1.07812ZM3.13042 20.9477H8.9852V15.0929H3.13042V20.9477Z" fill="white"/>
<path fill-rule="evenodd" clip-rule="evenodd" d="M1 10.9594V9.93323V1H10.9594V10.9594H1Z" fill="white"/>
<path fill-rule="evenodd" clip-rule="evenodd" d="M18.0202 10.9594C15.2821 10.9594 13.0405 8.71776 13.0405 5.9797C13.0405 3.24164 15.2821 1 18.0202 1C20.7582 1 22.9999 3.24164 22.9999 5.9797C22.9999 8.71776 20.7582 10.9594 18.0202 10.9594ZM18.0202 8.9071C19.6491 8.9071 20.9476 7.60861 20.9476 5.9797C20.9476 4.35079 19.6491 3.05229 18.0202 3.05229C16.3913 3.05229 15.0928 4.35079 15.0928 5.9797C15.0928 7.60861 16.3913 8.9071 18.0202 8.9071Z" fill="white"/>
</svg>
